/* XPM */
static char *_a02d8cfc6784abce2cadeea06cadf29oRnyM9c3HQrtSa04[] = {
/* columns rows colors chars-per-pixel */
"33 30 10 1 ",
"  c None",
". c #211F30",
"X c #D2612F",
"o c #9C1B4D",
"O c #CC3048",
"+ c #E44A4A",
"@ c #E68D41",
"# c #F18B72",
"$ c #F2BC7E",
"% c white",
/* pixels */
"                                 ",
"                                 ",
"     ..                   ..     ",
"    .OO.  .............  .++.    ",
"   .+.OO..+++++++++++++..+O.+.   ",
"  .+.@..+++#++++++++++++OO.@.+.  ",
"  ..@$.+##+++++++++++++++O.$@..  ",
"  .@$$.+##+++++++++++++++O.$$@.  ",
"   ...++++++++++++++++++++O...   ",
"     .++++++++++++++++++++O.     ",
"    .ooo+++++++++ooo+++++O+O.    ",
"    .%%%o+++++++o%%%o++++++O.    ",
"    .%%%........%%%%o+++OO+O.    ",
"    .%%.$$$$$$$$.%%%o+++OO+O.    ",
"    .%.$XX$$$$XX$.%%o++++++O.    ",
"    .o.$X@X$$X@X@.ooO++++++o.    ",
"    .O.$X@X$$X@.@.OO+++++++++.   ",
"   ..+.@.@X$$X@.@.ooooo+++++++.  ",
"  .O.+.@...@@...@.%%%%%.+O++++.  ",
"  .O.+O.@@@@@@@@.o......+oO++O.  ",
"  .O.++O........ooooooo.+oOOO.   ",
"   ..+++.ooooooo........+O...    ",
"    .++++.......%%%%%%%.++OO.    ",
"     .++++++++++ooooooo++OO.     ",
"     .O++OOOOOOOOOOOOOO+++O.     ",
"      .O+..............O++O.     ",
"      .O+OO.          .O++O.     ",
"      .OOO.            .++O.     ",
"       ...              ...      ",
"                                 "
};